<svg xmlns="http://www.w3.org/2000/svg" xmlns:xlink="http://www.w3.org/1999/xlink" version="1.0" id="Layer_1" x="0px" y="0px" style="enable-background:new 0 0 314 230;" xml:space="preserve" viewBox="81.08 26.1 151.82 178">
<style type="text/css">
	.st0{fill:#21234F;}
	.st1{fill:none;}
</style>
<path class="st0" d="M107.8,176.5l-0.6-1.9c0-0.1-0.1-0.1-0.1-0.1h-5c0,0-0.1,0-0.1,0.1l-0.6,1.9c0,0.1-0.2,0.2-0.3,0.2h-3.3  c-0.1,0-0.2-0.1-0.2-0.2c0,0,0-0.1,0-0.1l4.6-14.7c0-0.1,0.1-0.2,0.3-0.2h4.1c0.1,0,0.3,0.1,0.3,0.2l4.7,14.7c0,0,0,0.1,0,0.1  c0,0.1-0.1,0.2-0.2,0.2h-3.3C107.9,176.7,107.8,176.6,107.8,176.5 M103,171.7h3.2c0.1,0,0.1-0.1,0.1-0.1l-1.6-5.6  c0-0.1,0-0.1-0.1-0.1c0,0-0.1,0-0.1,0.1l-1.6,5.6C102.9,171.7,102.9,171.7,103,171.7z"/>
<path class="st0" d="M126.7,176.5l-0.6-1.9c0-0.1-0.1-0.1-0.1-0.1h-5c0,0-0.1,0-0.1,0.1l-0.6,1.9c0,0.1-0.2,0.2-0.3,0.2h-3.3  c-0.1,0-0.2-0.1-0.2-0.2c0,0,0-0.1,0-0.1l4.6-14.7c0-0.1,0.2-0.2,0.3-0.2h4.1c0.1,0,0.3,0.1,0.3,0.2l4.7,14.7c0,0,0,0.1,0,0.1  c0,0.1-0.1,0.2-0.2,0.2H127C126.9,176.7,126.7,176.6,126.7,176.5 M122,171.7h3.2c0.1,0,0.1-0.1,0.1-0.1l-1.7-5.6  c0-0.1,0-0.1-0.1-0.1c0,0-0.1,0-0.1,0.1l-1.6,5.6C121.9,171.7,121.9,171.7,122,171.7z"/>
<path class="st0" d="M136.1,176.6c-0.1,0-0.1-0.1-0.1-0.2v-14.6c0-0.1,0.1-0.3,0.3-0.3h3.1c0.1,0,0.1,0,0.2,0.1c0,0,0.1,0.1,0.1,0.2  v11.7c0,0.1,0,0.1,0.1,0.1h6.9c0.1,0,0.1,0,0.2,0.1c0,0,0.1,0.1,0.1,0.2v2.6c0,0.1,0,0.1-0.1,0.2c-0.1,0.1-0.1,0.1-0.2,0.1h-10.4  C136.3,176.7,136.2,176.7,136.1,176.6"/>
<path class="st0" d="M161.9,169c1.3,0.7,2.1,2,2,3.5c0.1,1.3-0.5,2.5-1.5,3.2c-1.2,0.8-2.5,1.1-3.9,1.1h-5.8c-0.1,0-0.3-0.1-0.3-0.3  l0,0v-14.7c0-0.1,0-0.1,0.1-0.2c0-0.1,0.1-0.1,0.2-0.1h5.6c1.4-0.1,2.8,0.3,4,1c1,0.8,1.5,2,1.4,3.2c0.1,1.3-0.6,2.5-1.7,3.1  C161.8,168.8,161.8,168.9,161.9,169 M156,164.7v2.7c0,0.1,0,0.1,0.1,0.1c0,0,0,0,0,0h2.2c0.5,0,1-0.1,1.4-0.4  c0.3-0.3,0.5-0.7,0.5-1.1c0-0.4-0.2-0.8-0.5-1.1c-0.4-0.3-0.9-0.4-1.4-0.4h-2.2C156,164.6,156,164.7,156,164.7z M159.8,173.2  c0.6-0.6,0.6-1.7,0-2.3c-0.4-0.3-0.9-0.4-1.4-0.4h-2.3c-0.1,0-0.1,0-0.1,0.1c0,0,0,0,0,0v2.9c0,0.1,0,0.1,0.1,0.1h2.3  C158.9,173.7,159.4,173.5,159.8,173.2L159.8,173.2z"/>
<path class="st0" d="M172.2,176.3c-0.9-0.5-1.6-1.1-2.1-2c-0.5-0.9-0.8-2-0.8-3V167c0-1,0.2-2,0.8-2.9c0.5-0.9,1.2-1.5,2.1-2  c2-0.9,4.2-0.9,6.2,0c0.9,0.5,1.6,1.1,2.1,2c0.5,0.9,0.8,1.9,0.7,2.9v4.3c0,1-0.2,2.1-0.7,3c-0.5,0.9-1.2,1.5-2.1,2  C176.5,177.3,174.2,177.3,172.2,176.3 M177,173.3c0.4-0.5,0.7-1.1,0.6-1.8V167c0-0.7-0.2-1.3-0.6-1.8c-0.9-0.9-2.4-0.9-3.3,0  c-0.4,0.5-0.7,1.1-0.6,1.8v4.5c0,0.7,0.2,1.3,0.6,1.8C174.6,174.2,176.1,174.2,177,173.3z"/>
<path class="st0" d="M194.9,176.5l-2.6-5.8c0-0.1-0.1-0.1-0.1-0.1h-1.4c-0.1,0-0.1,0-0.1,0.1v5.7c0,0.1,0,0.1-0.1,0.2  c0,0.1-0.1,0.1-0.2,0.1h-3.1c-0.1,0-0.1,0-0.2-0.1c-0.1,0-0.1-0.1-0.1-0.2v-14.6c0-0.1,0-0.1,0.1-0.2c0-0.1,0.1-0.1,0.2-0.1h6.4  c0.9,0,1.7,0.2,2.5,0.6c0.7,0.4,1.3,1,1.7,1.7c0.4,0.8,0.6,1.6,0.6,2.5c0,0.9-0.2,1.8-0.7,2.5c-0.5,0.7-1.2,1.2-2,1.5  c-0.1,0-0.1,0.1-0.1,0.1l2.9,6c0,0,0,0.1,0,0.1c0,0.1-0.1,0.2-0.2,0.2h-3.3C195,176.8,194.9,176.7,194.9,176.5 M190.6,164.8v3.1  c0,0.1,0,0.1,0.1,0.1h2.4c0.5,0,0.9-0.1,1.3-0.4c0.3-0.3,0.5-0.7,0.5-1.2c0-0.5-0.2-0.9-0.5-1.2c-0.4-0.3-0.8-0.5-1.3-0.4h-2.4  C190.7,164.6,190.6,164.7,190.6,164.8L190.6,164.8z"/>
<path class="st0" d="M206.8,176.2c-0.8-0.5-1.5-1.2-2-2c-0.5-0.9-0.8-1.9-0.7-2.9v-4.4c0-1,0.2-2,0.7-2.9c0.5-0.8,1.2-1.5,2-1.9  c0.9-0.5,2-0.7,3-0.7c1,0,2.1,0.2,3,0.7c0.8,0.4,1.5,1,2,1.8c0.5,0.8,0.7,1.6,0.7,2.5v0.1c0,0.1-0.1,0.3-0.3,0.3h-3  c-0.1,0-0.1,0-0.2-0.1c-0.1,0-0.1-0.1-0.1-0.2c0-0.5-0.2-1.1-0.6-1.4c-0.4-0.4-1-0.6-1.6-0.6c-0.6,0-1.2,0.2-1.6,0.6  c-0.4,0.5-0.6,1.1-0.6,1.7v4.6c0,0.6,0.2,1.3,0.7,1.7c0.5,0.4,1.1,0.7,1.7,0.6c0.6,0,1.1-0.1,1.5-0.5c0.4-0.4,0.6-0.9,0.6-1.4v-0.6  c0-0.1,0-0.1-0.1-0.1h-2.2c-0.1,0-0.1,0-0.2-0.1c0,0-0.1-0.1-0.1-0.2v-2.4c0-0.1,0-0.1,0.1-0.2c0.1,0,0.1-0.1,0.2-0.1h5.6  c0.1,0,0.1,0,0.2,0.1c0.1,0,0.1,0.1,0.1,0.2v2.9c0,1-0.2,2-0.7,2.9c-0.5,0.8-1.2,1.5-2,1.9C211,177.1,208.8,177.1,206.8,176.2"/>
<path class="st0" d="M83.8,203.3c-0.8-0.4-1.5-1.1-2-1.9c-0.5-0.8-0.8-1.8-0.7-2.8v-9.8c0-0.1,0-0.1,0.1-0.2c0-0.1,0.1-0.1,0.2-0.1  h3.1c0.1,0,0.1,0,0.2,0.1c0.1,0,0.1,0.1,0.1,0.2v9.8c0,0.6,0.2,1.2,0.6,1.6c0.4,0.4,1,0.6,1.6,0.6c0.6,0,1.2-0.2,1.6-0.6  c0.4-0.4,0.6-1,0.6-1.6v-9.8c0-0.1,0-0.1,0.1-0.2c0-0.1,0.1-0.1,0.2-0.1h3.1c0.1,0,0.1,0,0.2,0.1c0.1,0,0.1,0.1,0.1,0.2v9.8  c0,1-0.2,1.9-0.7,2.8c-0.5,0.8-1.2,1.5-2,1.9C87.9,204.2,85.7,204.2,83.8,203.3"/>
<path class="st0" d="M107.2,188.7c0-0.1,0.1-0.1,0.2-0.1h3.1c0.1,0,0.1,0,0.2,0.1c0,0,0.1,0.1,0.1,0.2v14.6c0,0.1,0,0.1-0.1,0.2  c0,0.1-0.1,0.1-0.2,0.1h-2.9c-0.1,0-0.3-0.1-0.3-0.2l-5-8.3c0-0.1-0.1-0.1-0.1-0.1s0,0,0,0.1v8.1c0,0.1-0.1,0.3-0.3,0.3l0,0h-3.1  c-0.1,0-0.3-0.1-0.3-0.3c0,0,0,0,0,0v-14.6c0-0.1,0-0.1,0.1-0.2c0-0.1,0.1-0.1,0.2-0.1h3c0.1,0,0.3,0.1,0.3,0.2l5,8.3  c0,0,0.1,0,0.1,0c0,0,0,0,0-0.1v-8.1C107.1,188.8,107.2,188.7,107.2,188.7"/>
<path class="st0" d="M116.8,203.8c0-0.1-0.1-0.1-0.1-0.2v-14.6c0-0.1,0-0.1,0.1-0.2c0-0.1,0.1-0.1,0.2-0.1h3.1c0.1,0,0.1,0,0.2,0.1  c0.1,0,0.1,0.1,0.1,0.2v14.6c0,0.1,0,0.1-0.1,0.2c0,0.1-0.1,0.1-0.2,0.1H117C116.9,203.8,116.9,203.8,116.8,203.8"/>
<path class="st0" d="M130.3,203.6l-4.4-14.6v-0.1c0-0.1,0.1-0.2,0.2-0.2c0,0,0,0,0,0h3.3c0.1,0,0.3,0.1,0.3,0.2l2.5,9.9  c0,0,0,0,0.1,0c0,0,0,0,0.1,0l2.4-9.9c0-0.1,0.2-0.2,0.3-0.2h3.3c0.1,0,0.1,0,0.2,0.1c0,0.1,0,0.2,0,0.2l-4.4,14.6  c0,0.1-0.1,0.2-0.3,0.2h-3.3C130.4,203.8,130.3,203.7,130.3,203.6"/>
<path class="st0" d="M154.7,191.6c0,0-0.1,0.1-0.2,0.1h-6.8c-0.1,0-0.1,0-0.1,0.1c0,0,0,0,0,0v2.7c0,0.1,0,0.1,0.1,0.1c0,0,0,0,0,0  h4.4c0.1,0,0.3,0.1,0.3,0.3v2.5c0,0.1,0,0.1-0.1,0.2c0,0-0.1,0.1-0.2,0.1h-4.4c-0.1,0-0.1,0-0.1,0.1c0,0,0,0,0,0v2.9  c0,0.1,0,0.1,0.1,0.1c0,0,0,0,0,0h6.8c0.1,0,0.1,0,0.2,0.1c0.1,0,0.1,0.1,0.1,0.2v2.6c0,0.1,0,0.1-0.1,0.2c0,0.1-0.1,0.1-0.2,0.1  h-10.3c-0.1,0-0.1,0-0.2-0.1c-0.1,0-0.1-0.1-0.1-0.2v-14.6c0-0.1,0-0.1,0.1-0.2c0-0.1,0.1-0.1,0.2-0.1h10.3c0.1,0,0.1,0,0.2,0.1  c0.1,0,0.1,0.1,0.1,0.2v2.6C154.8,191.5,154.7,191.6,154.7,191.6"/>
<path class="st0" d="M168.2,203.6l-2.6-5.8c0-0.1-0.1-0.1-0.1-0.1h-1.4c-0.1,0-0.1,0-0.1,0.1c0,0,0,0,0,0v5.7c0,0.1,0,0.1-0.1,0.2  c0,0-0.1,0.1-0.2,0.1h-3.1c-0.1,0-0.3-0.1-0.3-0.3l0,0v-14.6c0-0.1,0-0.1,0.1-0.2c0-0.1,0.1-0.1,0.2-0.1h6.4c0.9,0,1.7,0.2,2.5,0.6  c0.7,0.4,1.3,1,1.7,1.7c0.4,0.8,0.6,1.6,0.6,2.5c0,0.9-0.2,1.8-0.7,2.5c-0.5,0.7-1.2,1.3-2,1.5c-0.1,0-0.1,0.1-0.1,0.1l2.9,6  c0,0,0,0.1,0,0.1c0,0.1-0.1,0.2-0.2,0.2h-3.2C168.3,203.9,168.2,203.8,168.2,203.6 M164,191.8v3.1c0,0.1,0,0.1,0.1,0.1c0,0,0,0,0,0  h2.4c0.5,0,0.9-0.1,1.3-0.4c0.3-0.3,0.5-0.7,0.5-1.2c0-0.5-0.2-0.9-0.5-1.2c-0.4-0.3-0.8-0.5-1.3-0.5h-2.4  C164,191.7,164,191.8,164,191.8C164,191.8,164,191.8,164,191.8z"/>
<path class="st0" d="M180,203.4c-0.8-0.3-1.5-0.9-2-1.6c-0.5-0.7-0.7-1.6-0.7-2.5v-0.4c0-0.1,0-0.1,0.1-0.2c0.1,0,0.1-0.1,0.2-0.1h3  c0.1,0,0.1,0,0.2,0.1c0,0,0.1,0.1,0.1,0.2v0.3c0,0.5,0.3,1,0.7,1.2c0.6,0.4,1.2,0.6,1.9,0.5c0.5,0,1-0.1,1.4-0.4  c0.3-0.2,0.5-0.6,0.5-0.9c0-0.3-0.1-0.5-0.3-0.7c-0.2-0.2-0.5-0.3-0.7-0.4c-0.3-0.1-0.8-0.3-1.4-0.5c-0.1,0-0.2-0.1-0.2-0.1  l-0.2-0.1c-0.8-0.3-1.7-0.6-2.4-1c-0.7-0.4-1.3-0.9-1.8-1.5c-0.5-0.7-0.8-1.5-0.7-2.3c0-0.8,0.2-1.7,0.7-2.4c0.5-0.7,1.2-1.2,2-1.6  c0.9-0.4,1.9-0.6,2.8-0.5c1,0,2.1,0.2,3,0.6c0.8,0.4,1.6,1,2.1,1.7c0.5,0.7,0.8,1.6,0.8,2.5v0.3c0,0.1,0,0.1-0.1,0.2  c-0.1,0-0.1,0.1-0.2,0.1h-3c-0.1,0-0.1,0-0.2-0.1c-0.1,0-0.1-0.1-0.1-0.2v-0.2c0-0.5-0.3-1-0.7-1.3c-0.5-0.4-1.2-0.6-1.8-0.6  c-0.5,0-0.9,0.1-1.3,0.4c-0.3,0.2-0.5,0.6-0.5,1c0,0.3,0.1,0.6,0.3,0.8c0.3,0.3,0.6,0.4,0.9,0.6c0.4,0.2,1.1,0.4,2,0.7  c0.8,0.3,1.6,0.6,2.4,0.9c0.6,0.3,1.2,0.7,1.6,1.3c0.5,0.7,0.8,1.5,0.8,2.3c0,0.9-0.2,1.7-0.7,2.4c-0.5,0.7-1.2,1.3-2,1.6  c-0.9,0.4-2,0.6-3,0.6c-1.1,0-2.1-0.2-3.1-0.6"/>
<path class="st0" d="M194.6,203.8c0-0.1-0.1-0.1-0.1-0.2v-14.6c0-0.1,0-0.1,0.1-0.2c0-0.1,0.1-0.1,0.2-0.1h3.1c0.1,0,0.1,0,0.2,0.1  c0.1,0,0.1,0.1,0.1,0.2v14.6c0,0.1,0,0.1-0.1,0.2c0,0.1-0.1,0.1-0.2,0.1h-3.1C194.7,203.8,194.6,203.8,194.6,203.8"/>
<path class="st0" d="M215.3,188.7c0,0,0.1,0.1,0.1,0.2v2.6c0,0.1,0,0.1-0.1,0.2c-0.1,0.1-0.1,0.1-0.2,0.1h-3.8c-0.1,0-0.1,0-0.1,0.1  c0,0,0,0,0,0v11.7c0,0.1-0.1,0.3-0.2,0.3c0,0,0,0,0,0h-3.1c-0.1,0-0.1,0-0.2-0.1c0-0.1-0.1-0.1-0.1-0.2v-11.7c0-0.1,0-0.1-0.1-0.1  h-3.7c-0.1,0-0.1,0-0.2-0.1c0,0-0.1-0.1-0.1-0.2v-2.6c0-0.1,0-0.1,0.1-0.2c0-0.1,0.1-0.1,0.2-0.1h11.3  C215.2,188.6,215.3,188.7,215.3,188.7"/>
<path class="st0" d="M224.9,203.7c0-0.1-0.1-0.1-0.1-0.2v-5.1c0,0,0-0.1,0-0.1l-4.5-9.3c0,0,0-0.1,0-0.1c0-0.1,0.1-0.2,0.2-0.2h3.3  c0.1,0,0.2,0.1,0.3,0.2l2.4,5.5c0,0.1,0.1,0.1,0.1,0l2.4-5.5c0.1-0.1,0.2-0.2,0.3-0.2h3.4c0.1,0,0.2,0,0.2,0.1s0,0.1,0,0.2l-4.5,9.3  c0,0,0,0.1,0,0.1v5.1c0,0.1,0,0.1-0.1,0.2c0,0-0.1,0.1-0.2,0.1h-3.1C225.1,203.8,225.1,203.8,224.9,203.7"/>
<path class="st0" d="M205.1,103.5c-2.6-1.2-5.2-1.7-9.6-4.8c-11.3-8-16.3-17.2-9.1-36.8c4.2-11.3,5.8-19.7,5.5-30.6  c-0.1-0.1-0.6-0.4-0.7-0.5c-2.2,13.6-6,20.3-14.4,34.1c-19.1,31.1-1.1,50.1,7.4,56.9C191.9,118,200.1,111.4,205.1,103.5"/>
<path class="st0" d="M167.6,63.7c13.3-16.9,18.8-23.9,20-35.2l-0.7-0.4c-3.6,13.7-11.1,19.7-33.4,35.1c-23.2,16-22.4,40.2-16.1,57.9  c7.4,3.8,15.6,5.8,23.9,5.8c1.8,0,3.6-0.1,5.4-0.3C150.8,101.1,152.1,83.4,167.6,63.7"/>
<path class="st0" d="M158.5,51c15.1-7.5,21.9-15,24.8-24.6c-0.1-0.1-0.7-0.3-0.7-0.3c-8.6,14.7-19.2,15.8-43.4,19.8  c-13.9,2.3-21.5,8.4-29.3,17c-0.8,3.7-1.2,7.4-1.2,11.1c-0.1,12.3,4.2,24.3,12.1,33.8C121.2,68.3,139.6,60.3,158.5,51"/>
<rect x="57" y="15" class="st1" width="200" height="200"/>
</svg>