<?xml version="1.0" encoding="UTF-8"?><svg id="Layer_1" xmlns="http://www.w3.org/2000/svg" viewBox="0 0 24.89 46.43"><g><path d="M4.62,33.25c0-.27-.08-.46-.24-.56-.16-.11-.39-.16-.69-.16s-.51,.05-.68,.16c-.17,.1-.25,.29-.25,.56v10.02c0,.27,.08,.46,.25,.56,.17,.11,.39,.16,.68,.16s.53-.05,.69-.16,.24-.29,.24-.56v-3.41h2.77v3.9c0,.42-.05,.8-.16,1.13-.11,.33-.29,.61-.56,.83-.27,.23-.65,.4-1.13,.52-.48,.12-1.1,.18-1.85,.18s-1.37-.06-1.84-.18c-.47-.12-.85-.29-1.12-.52-.27-.23-.46-.5-.56-.83-.11-.33-.16-.71-.16-1.13v-11.01c0-.42,.05-.8,.16-1.13,.11-.33,.29-.61,.56-.83,.27-.22,.64-.4,1.12-.52,.47-.12,1.09-.18,1.84-.18s1.37,.06,1.85,.18c.48,.12,.86,.29,1.13,.52,.27,.23,.46,.5,.56,.83,.11,.33,.16,.71,.16,1.13v3.75h-2.77v-3.25Z" fill="#4967aa"/><path d="M8.7,30.36h4.65c.41,0,.78,.04,1.12,.12,.34,.08,.62,.22,.86,.41,.23,.19,.42,.44,.55,.77,.14,.32,.2,.73,.2,1.23v3.47c0,.44-.11,.76-.34,.98-.23,.22-.44,.37-.63,.46v.16c.21,.08,.44,.21,.68,.42,.24,.2,.36,.51,.36,.91v4.31c0,.48-.07,.89-.2,1.22-.13,.33-.32,.59-.56,.79-.24,.2-.53,.34-.88,.42-.35,.08-.73,.12-1.15,.12h-4.65v-15.79Zm4.13,6.38c.12,0,.23-.04,.33-.14,.1-.09,.15-.24,.15-.45v-2.8c0-.21-.06-.36-.19-.44-.13-.08-.26-.12-.39-.12h-1.24v3.95h1.35Zm-.09,6.97c.17,0,.31-.04,.44-.12,.13-.08,.19-.23,.19-.44v-3.52c0-.16-.06-.28-.18-.35-.12-.07-.24-.1-.36-.1h-1.35v4.53h1.26Z" fill="#4967aa"/><path d="M22.03,33.07c0-.36-.31-.54-.92-.54-.65,0-.97,.18-.97,.54v1.56c0,.26,.03,.45,.08,.59,.05,.14,.12,.25,.21,.34l3.43,3.14c.3,.26,.54,.55,.72,.88,.18,.33,.27,.8,.27,1.4v2.68c0,.99-.3,1.7-.89,2.13-.59,.43-1.54,.64-2.85,.64-.68,0-1.26-.05-1.75-.14-.49-.09-.88-.24-1.18-.46-.3-.22-.52-.5-.66-.86-.14-.35-.21-.79-.21-1.32v-3.63h2.75v3.32c0,.24,.09,.41,.28,.51,.19,.1,.45,.15,.78,.15,.29,0,.52-.05,.7-.15,.18-.1,.27-.27,.27-.51v-2.1c0-.21-.02-.38-.07-.51-.04-.13-.13-.24-.25-.35l-3.2-2.78c-.38-.33-.67-.69-.88-1.08-.21-.39-.32-.94-.32-1.65v-2.01c0-1.01,.29-1.72,.88-2.14,.59-.42,1.54-.63,2.87-.63s2.35,.21,2.89,.64c.54,.43,.81,1.11,.81,2.04v3.02h-2.78v-2.73Z" fill="#4967aa"/></g><g><path d="M2.98,4.68c1.09,.73,2.19,1.45,3.33,2.13v-.14s-1.82-4.24-1.82-4.24c-.34-.78-.68-1.61-1.02-2.44H0V3.21c.16-.13,.36-.21,.57-.24,1.26-.13,1.42,1.33,2.41,1.72" fill="#4967aa"/><path d="M10.71,18.74l-1.39-3.96-1.77-4.51-.38-.94-.9-.57L2.21,6.42c-.6-.46-1.48-.57-1.94-1.15-.08-.14-.18-.28-.27-.42V24.9H12.71l-.05-.17-1.94-6" fill="#4967aa"/><path d="M7.72,7.35c.21,.87,1.12,1.06,1.7,1.58,2.32,1.6,4.7,3.31,6.96,5.03,0,0,.05,.03,.12,.08v-.05s0-1.99,.07-3.31c-.09-2.59-.29-6.15-.75-8.38-.26-.64-.57-1.24-.47-1.87,.02-.14,0-.28-.04-.43H5.26c.11,.32,.22,.65,.33,.97,.7,2.11,1.37,4.27,2.13,6.38" fill="#4967aa"/><path d="M17.61,.89c.32,.77,.08,1.54,.14,2.33,.1,2.23,.19,4.46-.15,6.69-.12,1.49-.25,3-.27,4.5,0,0,0,.09,.02,.25,.1,.08,.17,.15,.2,.18l.07-.05,1.15-3.54,1.43-4.77c.43-1.79,1.11-3.6,1.19-5.42-.16-.32-.31-.69-.31-1.05h-3.42c.02,.3,.02,.6-.03,.89" fill="#4967aa"/><path d="M16.64,17.43l-.02-2.03c-.09-.06-.18-.14-.24-.21-2.07-1.54-4.34-2.92-6.54-4.29-.16,.03-.13,.23-.16,.35,.65,4.1,2.17,8.18,3.42,12.27,.16,.46,.27,.93,.41,1.39h.7c.71-2.12,1.39-4.17,2.08-6.32,.12-.37,.23-.75,.35-1.15" fill="#4967aa"/><path d="M23.62,0s-.02,.08-.03,.12c-.44,1.69-.93,3.36-1.68,5.02-.5,1.13-.88,2.37-1.25,3.54-.65,.99-1.06,2.15-1.5,3.28l-1.19,3.21c.27,.26,.63,.46,.88,.75,1.96,1.51,3.9,3.07,5.7,4.75,.11,.14,.22,.29,.35,.41V0h-1.27" fill="#4967aa"/><path d="M16.66,19.5l-.54,1.37c-.46,1.35-.89,2.69-1.3,4.03h1.64l.19-5.34v-.06" fill="#4967aa"/><path d="M19.05,17.07q-.58-.4-.7-.5s0-.01-.04-.03c-.05-.03-.11-.06-.16-.09-.01,0-.02,.02-.03,0-.05-.03-.11-.08-.17-.12-.03,.04-.03,.17-.06,.22-.09,.21-.22,.39-.22,.39-.08,.23-.15,.4-.21,.55,0,.24,0,.48,0,.73,0,1.52-.19,4.11-.15,4.31,0,0-.05,1.48-.09,2.37h7.67v-3.76h-.21c-1.89-1.35-3.74-2.72-5.64-4.07" fill="#4967aa"/></g></svg>